# xmcd
# 
# Track frame offsets:
#     150
#     12977
#     25710
#     41032
#     53617
#     65562
#     79620
#     93117
#     102957
#     119130
#     133492
#     149767
#     164697
#     180355
#     188702
#     200380
#     212475
#     224887
#     238542
#     255087
# 
# Disc length: 3608
# 
# Revision: 1
# Processed by: cddbd v1.5.2PL0 Copyright (c) Steve Scherf et al.
# Submitted via: BonkEnc v1.0.6
# 
DISCID=230e1614
DTITLE=Brasão e Brasãozinho - Raizes Sertanejas
DYEAR=0
DGENRE=Sertanojo
TTITLE0=Amor da minha vida
TTITLE1=De são paulo a mato grosso
TTITLE2=Milagre de nossa senhora
TTITLE3=Pranto de Deus
TTITLE4=O verde da nossa bandeira
TTITLE5=Está escrito
TTITLE6=Criminosa
TTITLE7=Foi somente ilusão
TTITLE8=Meu Tormento
TTITLE9=Lição de caboclo
TTITLE10=Minha Cruz
TTITLE11=Os dois goianos
TTITLE12=Palmas para o sertão
TTITLE13=Viverei com paixão
TTITLE14=De braços abertos
TTITLE15=Assim nasce o amor
TTITLE16=Nosso juramento
TTITLE17=Boa noite vida minha
TTITLE18=O homem mais triste do mundo
TTITLE19=Tema de Lara
EXTD=
EXTT0=
EXTT1=
EXTT2=
EXTT3=
EXTT4=
EXTT5=
EXTT6=
EXTT7=
EXTT8=
EXTT9=
EXTT10=
EXTT11=
EXTT12=
EXTT13=
EXTT14=
EXTT15=
EXTT16=
EXTT17=
EXTT18=
EXTT19=
PLAYORDER=
